<svg width="400" height="400" viewBox="0 0 400 400" fill="none" xmlns="http://www.w3.org/2000/svg">
<path d="M249.298 240.484C231.444 250.306 206.849 246.98 192.909 227.183C185.102 216.095 180.141 200.462 177.309 187.328C159.696 105.637 206.394 153.371 204.938 103.3C203.481 53.2297 205.158 20.051 269.354 2.62356C269.354 2.62356 326.906 -14.8039 308.234 55.8909C304.812 68.8461 299.698 81.7171 291.353 92.3274C282.583 103.478 270.94 111.839 260.078 120.783C247.078 131.486 256.126 149.248 261.012 161.812C267.084 177.427 273.05 193.255 270.248 210.301C267.924 224.438 259.771 234.723 249.298 240.484Z" fill="url(#paint0_linear_1331_14128)"/>
<g opacity="0.8">
<path d="M231.876 238.431C231.647 238.431 231.436 238.278 231.372 238.046C231.285 237.729 222.607 205.909 220.793 169.413C219.726 147.959 221.203 129.105 225.183 113.373C230.172 93.6537 239.131 78.8052 251.811 69.24C252.041 69.066 252.37 69.1117 252.544 69.3426C252.718 69.5735 252.672 69.9019 252.441 70.0759C224.13 91.4331 220.173 135.856 221.839 169.361C223.648 205.743 232.295 237.452 232.382 237.768C232.458 238.047 232.295 238.335 232.016 238.412C231.969 238.425 231.922 238.431 231.876 238.431Z" fill="white"/>
</g>
<path d="M236.684 249.414C234.244 249.071 232.003 247.385 230.126 243.835C222.335 229.097 236.895 206.779 237.207 191.299C237.521 175.735 234.108 160.558 230.332 145.587C226.438 130.147 224.435 113.739 235.03 100.415C244.165 88.9276 259.838 80.1725 274.088 88.6895C300.482 104.46 299.787 78.0838 304.349 60.295C309.6 39.8193 332.536 16.0327 355.301 20.4079C375.714 24.3313 384.13 53.2565 384.137 71.1926C384.14 80.5582 380.693 94.8595 373.505 101.588C356.963 117.073 319.49 116.966 333.964 146.981C338.844 157.1 343.431 167.932 334.172 177.163C324.686 186.62 309.004 187.449 297.147 192.189C283.659 197.58 274.532 208.647 266.357 220.173C262.384 225.774 247.564 250.944 236.684 249.414Z" fill="url(#paint1_linear_1331_14128)"/>
<g opacity="0.8">
<path d="M235.27 244.73C235.221 244.727 235.171 244.717 235.123 244.699C234.851 244.6 234.71 244.3 234.809 244.028C234.927 243.704 246.779 211.148 264.766 174.02C275.333 152.209 285.918 133.108 296.229 117.249C309.134 97.4004 321.648 82.5933 333.425 73.2393C333.651 73.0593 333.981 73.0972 334.161 73.3237C334.341 73.5501 334.303 73.8795 334.076 74.0595C307.583 95.1023 282.275 140.282 265.709 174.477C247.746 211.556 235.911 244.061 235.794 244.385C235.713 244.608 235.495 244.743 235.27 244.73Z" fill="white"/>
</g>
<path d="M298.148 359.582C298.148 366.303 293.379 372.049 287.499 372.392L60.6792 385.631C53.9428 386.024 48.4434 380.464 48.4434 373.236V47.8627C48.4434 40.6341 53.943 34.976 60.6792 35.2491L287.499 44.441C293.379 44.6793 298.148 50.3403 298.148 57.0613V359.582Z" fill="url(#paint2_linear_1331_14128)"/>
<path d="M304.807 359.582C304.807 366.303 300.038 372.049 294.159 372.392L67.3383 385.631C60.6019 386.024 55.1025 380.464 55.1025 373.236V47.8627C55.1025 40.6341 60.602 34.976 67.3383 35.2491L294.159 44.441C300.038 44.6793 304.807 50.3403 304.807 57.0613V359.582Z" fill="url(#paint3_linear_1331_14128)"/>
<path d="M60.8096 48.0729V372.924C60.8096 376.788 63.736 379.754 67.3391 379.55L246.73 369.387L294.159 366.7C297.31 366.522 299.859 363.456 299.859 359.853V56.8789C299.859 53.2756 297.31 50.2555 294.159 50.1332L245.017 48.2262L67.3391 41.3307C63.7361 41.1908 60.8096 44.2094 60.8096 48.0729Z" fill="url(#paint4_linear_1331_14128)"/>
<path d="M296.715 345.842C296.715 347.183 295.641 348.328 294.32 348.396L67.155 360.011C65.6456 360.089 64.416 358.985 64.416 357.55V48.0792C64.416 46.6449 65.6454 45.524 67.155 45.5807L294.32 54.1237C295.641 54.1733 296.715 55.3044 296.715 56.6448V345.842Z" fill="#D8DEE8"/>
<path d="M207.409 365.983L161.281 368.519C158.815 368.655 156.813 366.945 156.813 364.7V364.531C156.813 362.286 158.815 360.361 161.281 360.231L207.409 357.805C209.806 357.679 211.747 359.368 211.747 361.578V361.743C211.747 363.953 209.806 365.851 207.409 365.983Z" fill="url(#paint5_linear_1331_14128)"/>
<path d="M186.863 45.9691C186.863 47.1636 185.806 48.0914 184.502 48.0417C183.197 47.9919 182.138 46.9818 182.138 45.7859C182.138 44.5898 183.197 43.6619 184.502 43.7135C185.806 43.7647 186.863 44.7746 186.863 45.9691Z" fill="white"/>
<g opacity="0.3">
<path d="M244.772 338.288C243.847 318.462 265.891 306.834 263.773 278.865C263.582 276.341 261.612 254.697 244.193 240.027C228.55 226.853 215.402 231.809 186.449 221.301C166.158 213.937 143.346 205.657 134.12 189.045C115.798 156.057 168.154 123.106 157.438 80.3996C154.368 68.1623 145.698 53.1618 122.799 37.4969L67.3393 35.2493C60.6029 34.9764 55.1035 40.6343 55.1035 47.8629V373.236C55.1035 380.465 60.603 386.025 67.3393 385.631L274.004 373.569C251.992 360.844 245.254 348.618 244.772 338.288Z" fill="white"/>
</g>
<path d="M273.005 178.61C273.005 178.61 257.908 211.54 262.359 264.582H267.272C267.272 264.582 276.166 210.954 284.285 206.701C292.405 202.447 273.005 178.61 273.005 178.61Z" fill="url(#paint6_linear_1331_14128)"/>
<path d="M301.433 380.871C301.433 380.871 301.799 383.786 301.553 384.762C301.307 385.739 292.833 386.444 289.957 386.105C287.08 385.765 291.67 382.827 293.503 382.276C295.335 381.724 301.433 380.871 301.433 380.871Z" fill="url(#paint7_linear_1331_14128)"/>
<path d="M297.167 376.009L298.06 381.857C298.06 381.857 300.338 382.881 301.433 381.869L301.553 375.748L297.167 376.009Z" fill="url(#paint8_linear_1331_14128)"/>
<path d="M344.942 375.748C344.942 375.748 343.144 377.082 343.623 378.68C344.103 380.278 348.298 386.681 351.288 388.498C354.278 390.316 353.341 386.529 352.471 384.171C351.601 381.813 349.378 376.619 348.509 375.748C347.642 374.877 344.942 375.748 344.942 375.748Z" fill="url(#paint9_linear_1331_14128)"/>
<path d="M341.706 369.323C342.575 371.746 343.411 373.738 344.065 375.208C345.512 378.458 346.303 379.677 347.198 380.735C347.979 381.656 349.828 383.621 350.325 383.294C350.83 382.962 349.477 380.573 346.87 373.575C346.491 372.559 345.296 369.323 345.296 369.323H341.706Z" fill="url(#paint10_linear_1331_14128)"/>
<path d="M279.423 268.085C278.803 274.175 278.208 283.627 279.097 295.099C280.257 310.045 283.245 319.502 286.993 335.438C289.284 345.177 292.37 359.511 295.163 377.438C295.811 377.809 297.718 378.784 300.172 378.42C301.547 378.216 302.575 377.669 303.181 377.277C310.509 354.885 308.345 341.009 304.809 332.363C303.301 328.678 301.474 325.771 300.497 320.106C299.204 312.611 300.802 308.422 303.082 291.062C304.706 278.688 304.425 276.775 303.344 274.92C299.023 267.501 285.808 267.646 279.423 268.085Z" fill="url(#paint11_linear_1331_14128)"/>
<path d="M304.646 270.689C309.135 293.872 313.54 306.048 316.875 312.935C317.697 314.634 320.44 320.113 323.034 327.969C325.33 334.923 326.287 340.039 326.777 342.29C328.324 349.396 332.149 359.772 342.442 373.382C342.57 373.457 344.325 374.449 346.003 373.565C346.852 373.116 347.275 372.402 347.443 372.07C346.098 359.058 344.553 348.124 343.213 339.686C342.931 337.916 341.692 330.173 339.75 319.943C338.989 315.939 337.875 310.073 336.541 304.048C334.879 296.545 332.331 286.338 328.404 274.107C320.485 272.967 312.565 271.829 304.646 270.689Z" fill="url(#paint12_linear_1331_14128)"/>
<path d="M300.821 178.991C298.275 176.637 293.404 173.925 290.962 167.618C290.226 165.72 287.621 158.994 291.464 153.849C293.745 150.795 297.982 148.721 301.716 149.455C304.907 150.083 305.406 152.305 310.829 156.778C312.939 158.519 316.332 161.317 320.108 162.873C326.577 165.539 330.464 163.031 336.958 163.317C344.937 163.669 354.206 168.121 358.671 174.597C366.597 186.089 355.116 197.748 363.797 211.211C366.642 215.622 368.044 214.633 374.781 223.172C381.528 231.722 384.902 235.996 384.301 241.235C383.468 248.505 375.637 255.45 368.263 255.922C361.059 256.384 356.48 250.716 352.813 253.195C350.203 254.959 351.695 258.391 348.923 262.515C345.35 267.831 338.325 268.891 337.191 269.062C326.662 270.65 312.465 258.303 306.435 243.676C295.562 217.298 314.662 191.785 300.821 178.991Z" fill="url(#paint13_linear_1331_14128)"/>
<path d="M275.723 176.188C285.09 172.294 299.915 169.343 305.676 170.563C320.522 173.709 329.769 182.618 333.249 186.362C330.399 188.218 322.535 193.88 318.64 204.621C317.428 207.963 313.849 219.387 318.968 230.088C321.918 236.255 327.137 240.884 331.1 244.4C337.045 249.674 340.123 250.484 342.116 255.21C344.286 260.355 342.099 262.863 344.795 266.385C347.689 270.168 351.081 268.409 355.987 272.235C361.013 276.152 359.224 279.378 363.798 283.707C370.444 289.999 379.254 287.955 379.664 290.787C380.017 293.221 373.756 296.525 368.436 297.865C357.901 300.518 348.712 296.064 345.979 294.692C338.414 290.891 339.721 288.431 333.953 285.534C324.294 280.682 317.694 286.08 295.696 286.637C283.783 286.938 277.76 287.006 274.46 282.975C271.446 279.294 273.03 275.255 274.839 257.853C275.699 249.569 276.01 241.238 276.644 232.935C278.156 213.15 278.433 208.564 277.531 205.669C277.391 205.222 277.298 204.189 276.901 204.133C276.561 204.084 266.328 180.093 275.723 176.188Z" fill="url(#paint14_linear_1331_14128)"/>
<path d="M363.798 283.707C359.224 279.377 361.012 276.153 355.987 272.235C351.08 268.409 347.689 270.168 344.794 266.385C342.099 262.863 344.286 260.354 342.116 255.209C340.123 250.485 337.044 249.674 331.1 244.4C327.137 240.884 321.918 236.255 318.968 230.088C313.848 219.387 317.428 207.963 318.64 204.62C322.535 193.879 330.398 188.218 333.248 186.362C332.974 186.066 332.65 185.73 332.304 185.375C313.529 187.955 302.582 198.804 301.228 202.016C298.099 209.442 303.053 212.17 303.181 233.587C303.242 243.823 302.138 247.865 305.459 252.138C309.258 257.025 313.635 255.512 319.128 261.902C323.349 266.81 322.673 269.922 326.614 271.991C330.852 274.214 333.551 271.623 338.331 272.642C346.315 274.345 348.023 283.552 353.302 288.589C357.293 292.398 364.674 295.061 379.23 292.203C379.566 291.713 379.729 291.234 379.664 290.786C379.254 287.955 370.444 289.998 363.798 283.707Z" fill="url(#paint15_linear_1331_14128)"/>
<path d="M297.448 159.642C297.448 159.642 299.228 167.06 302.196 168.474C305.165 169.887 309.905 171.639 310.468 172.195C311.031 172.75 293.547 176.626 284.284 173.178C287.107 172.254 287.868 171.944 287.868 171.944C288.627 171.635 290.045 171.06 291.418 170.06C292.353 169.38 293.838 168.09 295.081 165.829L294.584 161.667L297.448 159.642Z" fill="url(#paint16_linear_1331_14128)"/>
<path d="M297.605 162.767C297.605 162.767 295.466 165.002 292.774 163.588C290.364 162.322 292.759 155.978 294.87 155.502C295.574 155.344 296.791 155.62 297.545 156.244C298.076 156.684 299.363 158.813 298.187 160.846C298.852 160.747 299.393 160.991 299.492 161.327C299.616 161.754 299.001 162.229 298.861 162.336C298.377 162.709 297.847 162.76 297.605 162.767Z" fill="url(#paint17_linear_1331_14128)"/>
<path d="M324.384 236.073C324.384 236.073 342.248 230.157 345.744 218.056C349.24 205.955 338.023 185.248 320.761 177.328L306.886 192.778C306.886 192.778 329.127 210.526 327.217 220.745C325.307 230.964 320.735 232.846 320.735 232.846L324.384 236.073Z" fill="url(#paint18_linear_1331_14128)"/>
<path d="M320.736 232.846C320.736 232.846 313.959 231.546 312.064 232.846C310.17 234.146 309.129 237.556 308.071 238.187C307.013 238.819 310.549 239.955 313.706 238.187C316.863 236.419 323.318 237.242 324.385 236.073C324.385 236.073 323.345 232.304 320.736 232.846Z" fill="url(#paint19_linear_1331_14128)"/>
<path d="M262.36 264.582C262.36 264.582 263.988 275.89 265.578 278.402C267.167 280.915 270.157 281.753 270.157 281.753C270.157 281.753 266.888 276.308 267.446 273.168C268.005 270.027 266.433 264.582 266.433 264.582H262.36V264.582Z" fill="url(#paint20_linear_1331_14128)"/>
<path d="M326.971 149.528C326.971 149.528 332.01 146.398 334.946 141.5C330.483 136.411 327.861 130.157 327.861 123.491C327.861 107.509 342.926 94.0964 362.333 93.5094C382.183 92.909 399.097 105.827 399.964 122.635C399.965 122.641 399.965 122.647 399.965 122.652C399.976 122.861 399.984 123.07 399.99 123.28C399.99 123.311 399.991 123.341 399.992 123.372C399.997 123.578 400 123.784 400 123.991C400 124.946 399.948 125.889 399.847 126.818C399.804 127.216 399.751 127.611 399.69 128.004C399.567 128.79 399.409 129.566 399.217 130.329C399.121 130.711 399.016 131.09 398.903 131.465C398.828 131.716 398.749 131.965 398.666 132.213C396.724 138.034 392.765 143.08 387.491 146.845C387.379 146.926 387.267 147.005 387.153 147.084C385.339 148.347 383.374 149.461 381.287 150.405C381.156 150.464 381.026 150.522 380.894 150.58C379.974 150.983 379.031 151.354 378.067 151.691C377.654 151.835 377.237 151.973 376.816 152.104C376.536 152.192 376.254 152.277 375.97 152.359C375.545 152.481 375.116 152.598 374.684 152.707C374.396 152.781 374.106 152.851 373.815 152.918C370.176 153.757 366.314 154.126 362.333 153.951C362.039 153.938 361.746 153.922 361.454 153.903C361.369 153.897 361.284 153.89 361.199 153.884C360.991 153.87 360.783 153.855 360.576 153.837C360.484 153.829 360.392 153.82 360.3 153.812C360.099 153.793 359.898 153.775 359.698 153.754C359.612 153.744 359.526 153.734 359.441 153.725C359.233 153.702 359.025 153.678 358.818 153.651C358.745 153.642 358.672 153.632 358.598 153.622C358.376 153.593 358.155 153.563 357.935 153.53C357.879 153.522 357.823 153.513 357.767 153.505C357.525 153.468 357.284 153.43 357.044 153.389C357.011 153.384 356.978 153.378 356.946 153.372C356.675 153.326 356.406 153.277 356.138 153.226C356.136 153.225 356.135 153.225 356.133 153.225C353.867 152.791 351.686 152.182 349.613 151.415C349.616 151.413 349.618 151.41 349.621 151.408C348.396 150.954 347.21 150.444 346.062 149.884C343.294 152.06 336.204 156.053 326.971 149.528Z" fill="url(#paint21_linear_1331_14128)"/>
<path d="M325.272 123.381C325.272 139.364 340.338 152.985 359.745 153.841C380.125 154.739 397.411 141.344 397.411 123.881C397.411 106.417 380.125 92.783 359.745 93.3995C340.338 93.9865 325.272 107.399 325.272 123.381Z" fill="url(#paint22_linear_1331_14128)"/>
<path d="M325.272 123.381C325.272 139.364 340.338 152.985 359.745 153.841C380.125 154.739 397.411 141.344 397.411 123.881C397.411 106.417 380.125 92.783 359.745 93.3995C340.338 93.9865 325.272 107.399 325.272 123.381Z" fill="url(#paint23_linear_1331_14128)"/>
<path d="M344.739 148.638C344.739 148.638 336.366 157.886 324.382 149.418C324.382 149.418 333.971 143.464 334.4 135.125L344.739 148.638Z" fill="url(#paint24_linear_1331_14128)"/>
<path d="M339.979 115.541C341.438 111.381 345.083 108.395 349.39 108.343C355.077 108.275 359.746 113.338 359.746 119.654C359.746 113.338 364.47 108.162 370.374 108.091C374.958 108.036 378.918 111.069 380.523 115.416C386.677 131.103 359.746 144.867 359.746 144.867C359.746 144.867 334.488 130.288 339.979 115.541Z" fill="white"/>
<g opacity="0.3">
<path d="M351.099 145.843C355.373 137.115 351.053 128.759 356.841 123.089C362.807 117.246 370.692 122.759 379.351 117.923C382.747 116.026 386.556 112.372 389.41 104.822C394.413 110.046 397.413 116.667 397.413 123.881C397.413 141.344 380.127 154.739 359.747 153.841C355.217 153.641 350.932 152.749 347.026 151.305C348.947 149.51 350.224 147.631 351.099 145.843Z" fill="url(#paint25_linear_1331_14128)"/>
</g>
<path d="M194.606 332.779C194.606 332.779 194.197 336.032 194.472 337.122C194.746 338.212 204.206 339 207.417 338.621C210.628 338.242 205.505 334.962 203.459 334.347C201.413 333.731 194.606 332.779 194.606 332.779Z" fill="url(#paint26_linear_1331_14128)"/>
<path d="M194.963 268.154C194.963 268.154 186.769 285.841 188.447 295.535C190.125 305.23 194.588 332.936 194.588 332.936C194.588 332.936 198.61 336.593 198.516 332.936C198.421 329.279 206.718 278.383 210.073 269.435C213.429 260.486 194.963 268.154 194.963 268.154Z" fill="url(#paint27_linear_1331_14128)"/>
<path d="M195.292 107.421C198.134 104.794 203.571 101.766 206.298 94.7263C207.119 92.6072 210.027 85.099 205.737 79.3556C203.191 75.9465 198.461 73.6315 194.293 74.451C190.731 75.1514 190.173 77.6321 184.12 82.6254C181.764 84.5689 177.977 87.6928 173.762 89.4298C166.54 92.4059 162.202 89.6056 154.952 89.9248C146.045 90.3177 135.699 95.288 130.714 102.516C121.866 115.345 134.683 128.359 124.992 143.388C121.816 148.312 120.251 147.208 112.73 156.74C105.199 166.284 101.433 171.056 102.104 176.904C103.034 185.019 111.775 192.772 120.007 193.299C128.048 193.815 133.16 187.488 137.254 190.255C140.168 192.224 138.501 196.055 141.596 200.658C145.585 206.593 153.426 207.776 154.692 207.967C166.446 209.74 182.294 195.957 189.025 179.628C201.162 150.184 179.841 121.703 195.292 107.421Z" fill="url(#paint28_linear_1331_14128)"/>
<path d="M213.751 100.933C210.6 99.9006 209.75 99.5552 209.75 99.5552C208.903 99.21 207.321 98.5677 205.787 97.4521C204.744 96.6933 203.086 95.2531 201.699 92.7283L202.254 88.0825L199.057 85.8226C199.057 85.8226 197.07 94.1034 193.756 95.6819C190.441 97.2595 185.15 99.2144 184.522 99.8349C184.522 99.8349 182.016 113.111 201.591 113.018C221.166 112.925 213.751 100.933 213.751 100.933Z" fill="url(#paint29_linear_1331_14128)"/>
<path d="M159.744 326.334C159.744 326.334 161.751 327.823 161.216 329.607C160.681 331.391 155.997 338.538 152.659 340.567C149.322 342.596 150.368 338.369 151.339 335.737C152.311 333.105 154.793 327.306 155.762 326.334C156.73 325.362 159.744 326.334 159.744 326.334Z" fill="url(#paint30_linear_1331_14128)"/>
<path d="M163.355 319.162C162.385 321.867 161.451 324.09 160.722 325.731C159.106 329.359 158.224 330.72 157.224 331.901C156.353 332.929 154.289 335.123 153.734 334.757C153.17 334.387 154.68 331.72 157.591 323.908C158.013 322.775 159.348 319.162 159.348 319.162H163.355Z" fill="url(#paint31_linear_1331_14128)"/>
<path d="M191.023 209.783C187.518 235.663 184.077 249.255 181.474 256.943C180.832 258.839 178.689 264.955 176.664 273.725C174.871 281.487 174.124 287.198 173.742 289.711C172.533 297.643 168.681 310.71 160.645 325.902C160.545 325.986 160.039 325.61 158.729 324.622C158.066 324.122 156.74 326.862 156.609 326.49C157.66 311.965 159.861 296.224 160.908 286.804C161.127 284.829 162.095 276.185 163.612 264.765C164.206 260.296 165.075 253.747 166.117 247.022C167.415 238.646 169.405 227.252 172.471 213.598C178.655 212.326 184.839 211.055 191.023 209.783Z" fill="url(#paint32_linear_1331_14128)"/>
<path d="M168.989 171.142C168.989 171.142 149.048 164.538 145.145 151.029C141.243 137.52 153.764 114.406 173.034 105.565L184.801 118.667C184.801 118.667 157.047 135.355 159.179 146.762C161.311 158.169 173.063 167.539 173.063 167.539L168.989 171.142Z" fill="url(#paint33_linear_1331_14128)"/>
<path d="M223.741 104.438C223.741 104.438 243.194 143.756 238.226 202.966L233.874 203.344C233.874 203.344 225.661 136.596 216.597 131.848C207.533 127.1 223.741 104.438 223.741 104.438Z" fill="url(#paint34_linear_1331_14128)"/>
<path d="M238.225 202.966C238.225 202.966 236.408 215.588 234.634 218.393C232.859 221.198 229.521 222.133 229.521 222.133C229.521 222.133 233.171 216.056 232.548 212.55C231.924 209.043 233.679 202.966 233.679 202.966H238.225Z" fill="url(#paint35_linear_1331_14128)"/>
<path d="M233.876 254.095C220.699 277.585 210.604 265.348 188.204 269.229C165.804 273.111 145.569 268.922 132.984 258.323C122.056 249.117 119.986 245.057 128.426 236.539C129.701 235.252 131.217 233.859 132.984 232.333C146.407 220.727 176.682 187.673 180.424 161.425C184.16 135.183 172.974 114.746 170.737 110.708L168.986 106.284C168.986 106.284 180.133 98.65 184.523 99.8244C184.523 99.8244 188.741 106.502 199.775 107.174C210.805 107.85 215.749 108.242 213.752 100.814C218.652 101.29 224.245 101.525 224.429 106.284C224.614 111.044 226.359 123.589 220.783 136.324C220.9 142.034 223.031 151.984 225.738 163.864C225.744 163.881 225.744 163.892 225.749 163.909C225.755 163.937 225.76 163.964 225.771 164.004C225.771 164.015 225.771 164.026 225.777 164.043C225.783 164.06 225.788 164.082 225.794 164.099C225.799 164.138 225.805 164.177 225.816 164.216C228.405 175.564 231.504 188.641 233.876 201.448C237.847 222.886 239.782 243.563 233.876 254.095Z" fill="url(#paint36_linear_1331_14128)"/>
<path d="M197.64 87.8798C197.64 87.8798 198.505 91.2229 201.899 91.3132C204.937 91.3938 206.062 83.9087 204.265 82.2941C203.666 81.7555 202.329 81.3612 201.255 81.5585C200.498 81.6974 198.083 83.0693 198.121 85.6911C197.527 85.2315 196.867 85.175 196.588 85.4487C196.233 85.796 196.575 86.5943 196.652 86.775C196.92 87.402 197.408 87.7406 197.64 87.8798Z" fill="url(#paint37_linear_1331_14128)"/>
<path d="M173.062 167.539C173.062 167.539 180.627 166.088 182.741 167.539C184.856 168.991 186.018 172.797 187.199 173.502C188.381 174.207 184.433 175.475 180.909 173.502C177.384 171.528 170.179 172.447 168.988 171.142C168.988 171.142 170.149 166.934 173.062 167.539Z" fill="url(#paint38_linear_1331_14128)"/>
<path d="M201.838 72.6972C201.44 71.3522 200.261 70.2783 198.76 69.8968C195.441 69.0532 192.825 69.8355 191.113 70.7419C189.682 71.4993 188.922 72.9553 189.172 74.4529L189.944 79.0741L202.983 76.5634L201.838 72.6972Z" fill="url(#paint39_linear_1331_14128)"/>
<path opacity="0.3" d="M201.836 72.6972C200.881 72.1956 199.482 71.671 197.954 71.9792C196.634 72.2454 196.414 72.892 195.36 72.913C193.296 72.954 192.394 70.51 191.11 70.7421C190.471 70.8577 189.722 71.639 189.17 74.453L189.942 79.0743L202.981 76.5636L201.836 72.6972Z" fill="url(#paint40_linear_1331_14128)"/>
<path d="M157.3 98.2327C156.618 98.4589 156.049 97.6776 156.475 97.0997C159.744 92.6712 169.967 81.2517 191.921 75.2247C213.617 69.2687 234.593 71.4483 242.589 72.6562C243.381 72.7761 243.44 73.8951 242.664 74.0949C230.023 77.3509 184.283 89.2772 157.3 98.2327Z" fill="url(#paint41_linear_1331_14128)"/>
<path d="M180.268 149.932V157.203C180.268 157.203 223.848 155.964 223.321 149.932C222.794 143.9 221.017 143.82 221.017 143.82C221.017 143.82 215.24 148.834 180.268 149.932Z" fill="url(#paint42_linear_1331_14128)"/>
<path d="M225.738 163.864C225.732 163.842 225.732 163.83 225.732 163.83C225.732 163.83 225.738 163.847 225.744 163.875C225.744 163.869 225.738 163.869 225.738 163.864Z" fill="url(#paint43_linear_1331_14128)"/>
<path opacity="0.3" d="M233.876 254.095C220.699 277.585 210.604 265.348 188.204 269.229C165.804 273.111 145.569 268.922 132.984 258.323C122.056 249.117 119.986 245.057 128.426 236.539C131.883 238.088 136.586 238.563 143.147 237.556C161.106 234.799 163.466 245.756 180.424 252.657C197.376 259.554 205.598 250.046 204.295 235.688C202.991 221.337 207.466 208.842 220.699 205.677C233.367 202.645 226.404 167.108 225.777 164.043C225.772 164.026 225.772 164.015 225.772 164.003C225.777 164.031 225.783 164.065 225.794 164.099C225.8 164.138 225.805 164.177 225.816 164.216C226.443 167.091 230.442 185.43 233.876 201.448C237.847 222.886 239.782 243.563 233.876 254.095Z" fill="url(#paint44_linear_1331_14128)"/>
<path d="M178.098 343.931C201.224 343.931 219.972 341.661 219.972 338.862C219.972 336.062 201.224 333.792 178.098 333.792C154.971 333.792 136.223 336.062 136.223 338.862C136.223 341.661 154.971 343.931 178.098 343.931Z" fill="#D8DEE8"/>
<path d="M88.484 286.561C87.7692 286.561 87.1584 286.018 87.0893 285.292C85.8608 272.403 81.6585 260.157 75.2564 250.809C69.585 242.527 62.8329 237.585 57.1913 237.585C57.1848 237.585 57.1789 237.585 57.1725 237.585C36.6244 237.626 32.3261 284.802 32.2851 285.279C32.2188 286.051 31.5423 286.622 30.7672 286.556C29.9954 286.49 29.4234 285.81 29.4896 285.039C29.6656 282.988 34.0651 234.825 57.1669 234.78C57.1751 234.78 57.1835 234.78 57.1916 234.78C63.8573 234.78 71.2836 240.042 77.5711 249.223C84.2372 258.957 88.6094 271.672 89.8822 285.025C89.9556 285.797 89.39 286.482 88.6187 286.555C88.5736 286.559 88.5285 286.561 88.484 286.561Z" fill="url(#paint45_linear_1331_14128)"/>
<path d="M2.87996 383.655L29.9292 397.349L46.3183 347.057L19.3137 279.632L11.6562 281.509L0.0375652 378.343C-0.225413 380.535 0.910346 382.658 2.87996 383.655Z" fill="url(#paint46_linear_1331_14128)"/>
<path opacity="0.3" d="M46.3173 347.056L19.3127 279.632L14.7961 280.739C14.1699 289.741 14.445 297.15 14.8704 302.545C16.6807 325.501 22.6928 331.889 19.7803 347.904C17.3586 361.22 12.07 363.027 12.5324 371.986C13.036 381.743 19.8413 389.913 27.9324 396.339L29.9283 397.349L46.3173 347.056Z" fill="url(#paint47_linear_1331_14128)"/>
<path d="M19.3154 279.632L120.172 279.632L153.55 387.389L29.9309 397.349L19.3154 279.632Z" fill="url(#paint48_linear_1331_14128)"/>
<path d="M50.5582 288.867C49.9215 288.867 49.3453 288.431 49.1935 287.784C48.9069 286.562 42.2805 257.689 51.6239 243.518C54.3018 239.457 58.0433 236.977 62.7438 236.148C86.8968 231.892 101.768 283.768 102.389 285.979C102.598 286.725 102.164 287.499 101.418 287.709C100.671 287.919 99.8973 287.483 99.6876 286.738C99.5421 286.221 84.904 235.085 63.231 238.911C59.2646 239.611 56.2341 241.623 53.966 245.062C45.281 258.235 51.8576 286.856 51.925 287.144C52.102 287.898 51.6337 288.653 50.8796 288.83C50.7721 288.855 50.6642 288.867 50.5582 288.867Z" fill="url(#paint49_linear_1331_14128)"/>
<g opacity="0.3">
<path d="M120.168 279.632H70.1345C67.6669 282.142 65.9157 285.034 65.7483 288.279C64.962 303.525 100.011 308.534 103.391 329.43C105.83 344.503 90.8257 361.896 77.4385 369.645C63.3341 377.808 53.7771 373.674 44.238 382.738C40.0465 386.72 37.4944 391.7 35.9766 396.862L153.547 387.389L120.168 279.632Z" fill="url(#paint50_linear_1331_14128)"/>
</g>
<path d="M50.568 293C52.7333 293 54.4886 291.244 54.4886 289.079C54.4886 286.914 52.7333 285.158 50.568 285.158C48.4028 285.158 46.6475 286.914 46.6475 289.079C46.6475 291.244 48.4028 293 50.568 293Z" fill="url(#paint51_linear_1331_14128)"/>
<path d="M101.697 292.636C103.862 292.636 105.618 290.881 105.618 288.716C105.618 286.55 103.862 284.795 101.697 284.795C99.5317 284.795 97.7764 286.55 97.7764 288.716C97.7764 290.881 99.5317 292.636 101.697 292.636Z" fill="url(#paint52_linear_1331_14128)"/>
<path d="M91.2431 341.787C89.3496 343.173 90.6475 347.661 91.7655 352.235C93.7087 360.187 96.8792 376.701 95.8332 388.956C95.7216 390.265 96.7712 391.38 98.084 391.355C98.1126 391.355 98.1414 391.354 98.1701 391.354C99.5617 391.327 100.571 390.043 100.297 388.679C99.3278 383.854 96.4935 376.86 97.9037 371.042C100.271 361.275 106.955 358.229 105.74 351.974C104.374 344.939 94.144 339.663 91.2431 341.787Z" fill="url(#paint53_linear_1331_14128)"/>
<path d="M155.271 380.449C154.991 377.86 148.86 378.292 141.172 374.698C134.507 371.582 133.681 368.717 128.216 362.895C127.94 362.602 124.472 358.716 119.831 355.154C114.343 350.943 113.709 352.151 109.919 349.101C102.684 343.28 103.119 337.374 95.7537 333.817C94.7503 333.332 91.5669 331.794 90.5431 332.855C89.1366 334.313 92.5611 340.146 95.8876 344.091C100.24 349.254 104.354 351.095 107.568 353.28C122.132 363.185 116.51 379.01 129.724 385.619C136.899 389.208 144.248 387.389 145.919 386.925C149.962 385.803 155.544 382.976 155.271 380.449Z" fill="url(#paint54_linear_1331_14128)"/>
<path d="M90.0211 331.811C89.1078 332.276 89.1146 334.899 89.128 340.144C89.1378 343.988 89.1914 345.909 89.7599 347.222C91.4739 351.178 95.535 350.497 102.344 354.325C103.338 354.884 111.268 359.46 116.403 368.118C118.93 372.38 120.127 376.185 120.127 376.185C122.385 382.405 122.067 385.533 125.415 389.015C127.599 391.287 131.142 393.108 152.842 393.456C172.62 393.773 182.509 393.931 183.272 390.843C184.273 386.798 169.581 379.942 163.943 377.652C158.291 375.357 155.465 374.209 152.189 374.779C143.75 376.248 140.675 385.752 135.333 384.624C133.798 384.3 133.055 383.306 130.367 379.84C126.771 375.203 122.807 370.84 119.488 366.001C114.283 358.411 110.154 353.209 104.78 346.438C92.8955 331.467 90.7509 331.439 90.0211 331.811Z" fill="url(#paint55_linear_1331_14128)"/>
<path opacity="0.3" d="M90.0211 331.811C89.1078 332.276 89.1146 334.899 89.128 340.144C89.1378 343.988 89.1914 345.909 89.7599 347.222C91.4739 351.178 95.535 350.497 102.344 354.325C103.338 354.884 111.268 359.46 116.403 368.118C118.93 372.38 120.127 376.185 120.127 376.185C122.385 382.405 122.067 385.533 125.415 389.015C127.599 391.287 131.142 393.108 152.842 393.456C172.62 393.773 182.509 393.931 183.272 390.843C184.273 386.798 169.581 379.942 163.943 377.652C158.291 375.357 155.465 374.209 152.189 374.779C143.75 376.248 140.675 385.752 135.333 384.624C133.798 384.3 133.055 383.306 130.367 379.84C126.771 375.203 122.807 370.84 119.488 366.001C114.283 358.411 110.154 353.209 104.78 346.438C92.8955 331.467 90.7509 331.439 90.0211 331.811Z" fill="url(#paint56_linear_1331_14128)"/>
<path d="M80.4677 347.447C78.5743 348.833 79.8721 353.321 80.9901 357.895C82.9333 365.847 86.1037 382.361 85.0578 394.616C84.9462 395.925 85.9958 397.04 87.3086 397.015C87.3374 397.015 87.366 397.014 87.3947 397.014C88.7862 396.987 89.7961 395.703 89.522 394.339C88.5524 389.514 85.7181 382.519 87.1285 376.702C89.4961 366.935 96.1794 363.889 94.9646 357.634C93.5982 350.599 83.3685 345.323 80.4677 347.447Z" fill="url(#paint57_linear_1331_14128)"/>
<path d="M144.495 386.109C144.215 383.52 138.084 383.952 130.397 380.358C123.731 377.242 122.906 374.377 117.44 368.555C117.165 368.262 113.697 364.375 109.055 360.814C103.567 356.603 102.934 357.811 99.1432 354.761C91.9087 348.94 92.3439 343.034 84.9783 339.477C83.9749 338.992 80.7915 337.454 79.7677 338.515C78.3612 339.973 81.7857 345.806 85.1122 349.751C89.465 354.914 93.5788 356.755 96.7922 358.94C111.357 368.845 105.735 384.67 118.949 391.279C126.124 394.868 133.473 393.049 135.144 392.585C139.186 391.464 144.769 388.636 144.495 386.109Z" fill="url(#paint58_linear_1331_14128)"/>
<path d="M79.2458 337.47C78.3325 337.936 78.3392 340.559 78.3526 345.804C78.3624 349.648 78.416 351.569 78.9845 352.882C80.6984 356.838 84.7596 356.157 91.5686 359.985C92.5631 360.544 100.492 365.12 105.628 373.779C108.155 378.04 109.352 381.845 109.352 381.845C111.61 388.065 111.291 391.193 114.639 394.675C116.824 396.947 120.367 398.768 142.066 399.116C161.844 399.433 171.734 399.591 172.497 396.504C173.497 392.458 158.805 385.603 153.168 383.313C147.516 381.017 144.69 379.869 141.413 380.439C132.975 381.908 129.899 391.412 124.557 390.284C123.023 389.961 122.28 388.966 119.592 385.5C115.996 380.863 112.031 376.5 108.713 371.661C103.508 364.071 99.3786 358.869 94.0042 352.098C82.1202 337.127 79.9754 337.099 79.2458 337.47Z" fill="url(#paint59_linear_1331_14128)"/>
<defs>
<linearGradient id="paint0_linear_1331_14128" x1="173.333" y1="123.274" x2="311.962" y2="123.274" gradientUnits="userSpaceOnUse">
<stop offset="0.0036" stop-color="#E38DDD"/>
<stop offset="1" stop-color="#9571F6"/>
</linearGradient>
<linearGradient id="paint1_linear_1331_14128" x1="386.121" y1="55.3319" x2="94.1787" y2="293.549" gradientUnits="userSpaceOnUse">
<stop stop-color="#FFC444"/>
<stop offset="0.9964" stop-color="#F36F56"/>
</linearGradient>
<linearGradient id="paint2_linear_1331_14128" x1="62.8215" y1="93.3114" x2="282.719" y2="335.626" gradientUnits="userSpaceOnUse">
<stop offset="0.0036" stop-color="#26264F"/>
<stop offset="1" stop-color="#444B8C"/>
</linearGradient>
<linearGradient id="paint3_linear_1331_14128" x1="59.9608" y1="210.635" x2="336.311" y2="202.935" gradientUnits="userSpaceOnUse">
<stop stop-color="#444B8C"/>
<stop offset="0.9964" stop-color="#26264F"/>
</linearGradient>
<linearGradient id="paint4_linear_1331_14128" x1="255.539" y1="276.366" x2="88.2249" y2="139.472" gradientUnits="userSpaceOnUse">
<stop stop-color="#444B8C"/>
<stop offset="0.9964" stop-color="#26264F"/>
</linearGradient>
<linearGradient id="paint5_linear_1331_14128" x1="186.52" y1="346.079" x2="181.95" y2="380.879" gradientUnits="userSpaceOnUse">
<stop stop-color="#444B8C"/>
<stop offset="0.9964" stop-color="#26264F"/>
</linearGradient>
<linearGradient id="paint6_linear_1331_14128" x1="250.917" y1="200.982" x2="310.925" y2="274.765" gradientUnits="userSpaceOnUse">
<stop stop-color="#AA80F9"/>
<stop offset="0.9964" stop-color="#6165D7"/>
</linearGradient>
<linearGradient id="paint7_linear_1331_14128" x1="294.095" y1="362.124" x2="297.024" y2="414.848" gradientUnits="userSpaceOnUse">
<stop stop-color="#444B8C"/>
<stop offset="0.9964" stop-color="#26264F"/>
</linearGradient>
<linearGradient id="paint8_linear_1331_14128" x1="297.167" y1="379.032" x2="301.553" y2="379.032" gradientUnits="userSpaceOnUse">
<stop stop-color="#FFC444"/>
<stop offset="0.9964" stop-color="#F36F56"/>
</linearGradient>
<linearGradient id="paint9_linear_1331_14128" x1="347.115" y1="359.178" x2="350.045" y2="411.902" gradientUnits="userSpaceOnUse">
<stop stop-color="#444B8C"/>
<stop offset="0.9964" stop-color="#26264F"/>
</linearGradient>
<linearGradient id="paint10_linear_1331_14128" x1="341.706" y1="376.327" x2="350.429" y2="376.327" gradientUnits="userSpaceOnUse">
<stop stop-color="#FFC444"/>
<stop offset="0.9964" stop-color="#F36F56"/>
</linearGradient>
<linearGradient id="paint11_linear_1331_14128" x1="294.816" y1="373.748" x2="293.351" y2="317.118" gradientUnits="userSpaceOnUse">
<stop stop-color="#311944"/>
<stop offset="1" stop-color="#893976"/>
</linearGradient>
<linearGradient id="paint12_linear_1331_14128" x1="327.377" y1="372.906" x2="325.912" y2="316.276" gradientUnits="userSpaceOnUse">
<stop stop-color="#311944"/>
<stop offset="1" stop-color="#893976"/>
</linearGradient>
<linearGradient id="paint13_linear_1331_14128" x1="347.366" y1="231.152" x2="326.862" y2="202.105" gradientUnits="userSpaceOnUse">
<stop stop-color="#444B8C"/>
<stop offset="0.9964" stop-color="#26264F"/>
</linearGradient>
<linearGradient id="paint14_linear_1331_14128" x1="269.208" y1="192.069" x2="417.388" y2="374.264" gradientUnits="userSpaceOnUse">
<stop stop-color="#AA80F9"/>
<stop offset="0.9964" stop-color="#6165D7"/>
</linearGradient>
<linearGradient id="paint15_linear_1331_14128" x1="325.239" y1="169.622" x2="342.163" y2="273.118" gradientUnits="userSpaceOnUse">
<stop stop-color="#AA80F9"/>
<stop offset="0.9964" stop-color="#6165D7"/>
</linearGradient>
<linearGradient id="paint16_linear_1331_14128" x1="284.284" y1="167.117" x2="310.481" y2="167.117" gradientUnits="userSpaceOnUse">
<stop stop-color="#FFC444"/>
<stop offset="0.9964" stop-color="#F36F56"/>
</linearGradient>
<linearGradient id="paint17_linear_1331_14128" x1="291.765" y1="159.758" x2="299.508" y2="159.758" gradientUnits="userSpaceOnUse">
<stop stop-color="#FFC444"/>
<stop offset="0.9964" stop-color="#F36F56"/>
</linearGradient>
<linearGradient id="paint18_linear_1331_14128" x1="294.051" y1="168.757" x2="451.815" y2="362.736" gradientUnits="userSpaceOnUse">
<stop stop-color="#AA80F9"/>
<stop offset="0.9964" stop-color="#6165D7"/>
</linearGradient>
<linearGradient id="paint19_linear_1331_14128" x1="307.88" y1="235.701" x2="324.385" y2="235.701" gradientUnits="userSpaceOnUse">
<stop stop-color="#FFC444"/>
<stop offset="0.9964" stop-color="#F36F56"/>
</linearGradient>
<linearGradient id="paint20_linear_1331_14128" x1="262.36" y1="273.167" x2="270.158" y2="273.167" gradientUnits="userSpaceOnUse">
<stop stop-color="#FFC444"/>
<stop offset="0.9964" stop-color="#F36F56"/>
</linearGradient>
<linearGradient id="paint21_linear_1331_14128" x1="308.224" y1="-3.91132" x2="415.637" y2="264.621" gradientUnits="userSpaceOnUse">
<stop stop-color="#311944"/>
<stop offset="1" stop-color="#893976"/>
</linearGradient>
<linearGradient id="paint22_linear_1331_14128" x1="374.72" y1="98.877" x2="325.38" y2="190.387" gradientUnits="userSpaceOnUse">
<stop stop-color="#FF9085"/>
<stop offset="1" stop-color="#FB6FBB"/>
</linearGradient>
<linearGradient id="paint23_linear_1331_14128" x1="374.72" y1="98.877" x2="325.38" y2="190.387" gradientUnits="userSpaceOnUse">
<stop stop-color="#FF9085"/>
<stop offset="1" stop-color="#FB6FBB"/>
</linearGradient>
<linearGradient id="paint24_linear_1331_14128" x1="371.13" y1="100.368" x2="312.223" y2="177.853" gradientUnits="userSpaceOnUse">
<stop stop-color="#FF9085"/>
<stop offset="1" stop-color="#FB6FBB"/>
</linearGradient>
<linearGradient id="paint25_linear_1331_14128" x1="388.067" y1="103.965" x2="339.341" y2="201.747" gradientUnits="userSpaceOnUse">
<stop stop-color="#FF9085"/>
<stop offset="1" stop-color="#FB6FBB"/>
</linearGradient>
<linearGradient id="paint26_linear_1331_14128" x1="202.797" y1="311.851" x2="199.527" y2="370.706" gradientUnits="userSpaceOnUse">
<stop stop-color="#444B8C"/>
<stop offset="0.9964" stop-color="#26264F"/>
</linearGradient>
<linearGradient id="paint27_linear_1331_14128" x1="200.676" y1="331.447" x2="199.763" y2="296.127" gradientUnits="userSpaceOnUse">
<stop stop-color="#FFC444"/>
<stop offset="0.9964" stop-color="#F36F56"/>
</linearGradient>
<linearGradient id="paint28_linear_1331_14128" x1="143.334" y1="165.648" x2="166.222" y2="133.223" gradientUnits="userSpaceOnUse">
<stop stop-color="#444B8C"/>
<stop offset="0.9964" stop-color="#26264F"/>
</linearGradient>
<linearGradient id="paint29_linear_1331_14128" x1="199.007" y1="75.0255" x2="200.769" y2="140.515" gradientUnits="userSpaceOnUse">
<stop stop-color="#FFC444"/>
<stop offset="0.2325" stop-color="#FDB547"/>
<stop offset="0.676" stop-color="#F78F4F"/>
<stop offset="0.9964" stop-color="#F36F56"/>
</linearGradient>
<linearGradient id="paint30_linear_1331_14128" x1="157.318" y1="307.837" x2="154.048" y2="366.693" gradientUnits="userSpaceOnUse">
<stop stop-color="#444B8C"/>
<stop offset="0.9964" stop-color="#26264F"/>
</linearGradient>
<linearGradient id="paint31_linear_1331_14128" x1="159.085" y1="325.012" x2="178.521" y2="272.439" gradientUnits="userSpaceOnUse">
<stop stop-color="#FFC444"/>
<stop offset="0.9964" stop-color="#F36F56"/>
</linearGradient>
<linearGradient id="paint32_linear_1331_14128" x1="148.323" y1="321.034" x2="167.759" y2="268.46" gradientUnits="userSpaceOnUse">
<stop stop-color="#FFC444"/>
<stop offset="0.9964" stop-color="#F36F56"/>
</linearGradient>
<linearGradient id="paint33_linear_1331_14128" x1="202.85" y1="95.9972" x2="26.7389" y2="312.534" gradientUnits="userSpaceOnUse">
<stop stop-color="#FFC444"/>
<stop offset="0.9964" stop-color="#F36F56"/>
</linearGradient>
<linearGradient id="paint34_linear_1331_14128" x1="239.219" y1="120.761" x2="197.086" y2="257.975" gradientUnits="userSpaceOnUse">
<stop stop-color="#FFC444"/>
<stop offset="0.9964" stop-color="#F36F56"/>
</linearGradient>
<linearGradient id="paint35_linear_1331_14128" x1="203.781" y1="114.549" x2="245.914" y2="251.763" gradientUnits="userSpaceOnUse">
<stop stop-color="#FFC444"/>
<stop offset="0.9964" stop-color="#F36F56"/>
</linearGradient>
<linearGradient id="paint36_linear_1331_14128" x1="137.516" y1="131.88" x2="237.675" y2="255.03" gradientUnits="userSpaceOnUse">
<stop stop-color="#FF9085"/>
<stop offset="1" stop-color="#FB6FBB"/>
</linearGradient>
<linearGradient id="paint37_linear_1331_14128" x1="201.094" y1="87.9511" x2="205.755" y2="125.983" gradientUnits="userSpaceOnUse">
<stop stop-color="#FFC444"/>
<stop offset="0.9964" stop-color="#F36F56"/>
</linearGradient>
<linearGradient id="paint38_linear_1331_14128" x1="168.988" y1="170.726" x2="187.413" y2="170.726" gradientUnits="userSpaceOnUse">
<stop stop-color="#FFC444"/>
<stop offset="0.9964" stop-color="#F36F56"/>
</linearGradient>
<linearGradient id="paint39_linear_1331_14128" x1="189.12" y1="73.6736" x2="203.103" y2="75.7604" gradientUnits="userSpaceOnUse">
<stop stop-color="#FF9085"/>
<stop offset="1" stop-color="#FB6FBB"/>
</linearGradient>
<linearGradient id="paint40_linear_1331_14128" x1="189.138" y1="74.6656" x2="202.956" y2="76.7279" gradientUnits="userSpaceOnUse">
<stop stop-color="#FF9085"/>
<stop offset="1" stop-color="#FB6FBB"/>
</linearGradient>
<linearGradient id="paint41_linear_1331_14128" x1="156.328" y1="84.7623" x2="243.216" y2="84.7623" gradientUnits="userSpaceOnUse">
<stop stop-color="#FF9085"/>
<stop offset="1" stop-color="#FB6FBB"/>
</linearGradient>
<linearGradient id="paint42_linear_1331_14128" x1="201.547" y1="144.344" x2="201.878" y2="156.621" gradientUnits="userSpaceOnUse">
<stop stop-color="#311944"/>
<stop offset="1" stop-color="#893976"/>
</linearGradient>
<linearGradient id="paint43_linear_1331_14128" x1="225.725" y1="163.837" x2="225.751" y2="163.869" gradientUnits="userSpaceOnUse">
<stop stop-color="#FF9085"/>
<stop offset="1" stop-color="#FB6FBB"/>
</linearGradient>
<linearGradient id="paint44_linear_1331_14128" x1="171.037" y1="201.882" x2="223.584" y2="266.491" gradientUnits="userSpaceOnUse">
<stop stop-color="#FF9085"/>
<stop offset="1" stop-color="#FB6FBB"/>
</linearGradient>
<linearGradient id="paint45_linear_1331_14128" x1="22.9078" y1="252.402" x2="35.1828" y2="256.961" gradientUnits="userSpaceOnUse">
<stop stop-color="#AB316D"/>
<stop offset="1" stop-color="#792D3D"/>
</linearGradient>
<linearGradient id="paint46_linear_1331_14128" x1="-11.4744" y1="294.588" x2="22.7183" y2="351.927" gradientUnits="userSpaceOnUse">
<stop offset="0.0036" stop-color="#E38DDD"/>
<stop offset="1" stop-color="#9571F6"/>
</linearGradient>
<linearGradient id="paint47_linear_1331_14128" x1="-6.18875" y1="291.436" x2="28.0039" y2="348.774" gradientUnits="userSpaceOnUse">
<stop offset="0.0036" stop-color="#E38DDD"/>
<stop offset="1" stop-color="#9571F6"/>
</linearGradient>
<linearGradient id="paint48_linear_1331_14128" x1="48.0508" y1="317.687" x2="144.316" y2="391.859" gradientUnits="userSpaceOnUse">
<stop offset="0.0036" stop-color="#E38DDD"/>
<stop offset="1" stop-color="#9571F6"/>
</linearGradient>
<linearGradient id="paint49_linear_1331_14128" x1="66.9659" y1="231.247" x2="76.7858" y2="293.85" gradientUnits="userSpaceOnUse">
<stop stop-color="#AB316D"/>
<stop offset="1" stop-color="#792D3D"/>
</linearGradient>
<linearGradient id="paint50_linear_1331_14128" x1="49.292" y1="316.072" x2="145.558" y2="390.244" gradientUnits="userSpaceOnUse">
<stop offset="0.0036" stop-color="#E38DDD"/>
<stop offset="1" stop-color="#9571F6"/>
</linearGradient>
<linearGradient id="paint51_linear_1331_14128" x1="45.2786" y1="287.114" x2="46.859" y2="287.701" gradientUnits="userSpaceOnUse">
<stop stop-color="#AB316D"/>
<stop offset="1" stop-color="#792D3D"/>
</linearGradient>
<linearGradient id="paint52_linear_1331_14128" x1="96.4076" y1="286.751" x2="97.9881" y2="287.338" gradientUnits="userSpaceOnUse">
<stop stop-color="#AB316D"/>
<stop offset="1" stop-color="#792D3D"/>
</linearGradient>
<linearGradient id="paint53_linear_1331_14128" x1="90.2813" y1="366.334" x2="105.886" y2="366.334" gradientUnits="userSpaceOnUse">
<stop stop-color="#444B8C"/>
<stop offset="0.9964" stop-color="#26264F"/>
</linearGradient>
<linearGradient id="paint54_linear_1331_14128" x1="122.871" y1="337.865" x2="122.61" y2="379.384" gradientUnits="userSpaceOnUse">
<stop stop-color="#311944"/>
<stop offset="1" stop-color="#A03976"/>
</linearGradient>
<linearGradient id="paint55_linear_1331_14128" x1="148.407" y1="341.44" x2="122.157" y2="385.712" gradientUnits="userSpaceOnUse">
<stop stop-color="#FF9085"/>
<stop offset="1" stop-color="#FB6FBB"/>
</linearGradient>
<linearGradient id="paint56_linear_1331_14128" x1="148.407" y1="341.44" x2="122.157" y2="385.712" gradientUnits="userSpaceOnUse">
<stop stop-color="#FF9085"/>
<stop offset="1" stop-color="#FB6FBB"/>
</linearGradient>
<linearGradient id="paint57_linear_1331_14128" x1="79.5058" y1="371.994" x2="95.1109" y2="371.994" gradientUnits="userSpaceOnUse">
<stop stop-color="#444B8C"/>
<stop offset="0.9964" stop-color="#26264F"/>
</linearGradient>
<linearGradient id="paint58_linear_1331_14128" x1="112.096" y1="343.525" x2="111.835" y2="385.044" gradientUnits="userSpaceOnUse">
<stop stop-color="#311944"/>
<stop offset="1" stop-color="#A03976"/>
</linearGradient>
<linearGradient id="paint59_linear_1331_14128" x1="123.839" y1="373.258" x2="111.171" y2="415.443" gradientUnits="userSpaceOnUse">
<stop stop-color="#FF9085"/>
<stop offset="1" stop-color="#FB6FBB"/>
</linearGradient>
</defs>
</svg>
